<svg width="63" height="146" viewBox="0 0 63 146" fill="none" xmlns="http://www.w3.org/2000/svg">
<line x1="37.1899" y1="77.4601" x2="37.1899" y2="145.991" stroke="#77BEF6"/>
<path d="M23.5768 38.4716C30.5129 31.5355 41.7586 31.5355 48.6947 38.4716C55.6307 45.4077 55.6308 56.6533 48.6947 63.5894L36.1357 76.1483L23.5768 63.5894C16.6407 56.6533 16.6407 45.4077 23.5768 38.4716Z" stroke="#77BEF6"/>
<path d="M24.9114 39.6801C31.18 33.4114 41.3434 33.4114 47.6121 39.6801C53.8807 45.9487 53.8807 56.1122 47.6121 62.3808L36.2617 73.7311L24.9114 62.3808C18.6427 56.1122 18.6427 45.9487 24.9114 39.6801Z" fill="#77BEF6"/>
<path d="M42.559 56.7543H38.6354H35.3184H31.5886V51.7585V48.2711V46.1658H31.208H28.2278H27.9141V60.4139H28.35H31.5886H34.9447H39.0091H42.8958V56.7543H42.559Z" fill="white"/>
<path d="M42.8542 54.9221C42.8542 52.4495 41.3111 50.335 39.1336 49.4786C39.6642 48.5993 39.9709 47.5685 39.9709 46.4664C39.9709 43.5323 37.8004 41.1033 34.9701 40.6809C34.6841 40.6395 34.3911 40.6166 34.0936 40.6166H27.9141V44.6022H28.523H32.419H34.924C35.6967 45.0384 36.2203 45.8626 36.2203 46.8108C36.2203 47.6098 35.8489 48.3215 35.2677 48.7876H33.1432V49.2927V50.4888V52.2406V52.5367H36.3749H37.5812C38.6585 52.8053 39.4566 53.7719 39.4566 54.9267C39.4566 55.1104 39.4358 55.2918 39.3966 55.4639H42.8289C42.845 55.2849 42.8542 55.1035 42.8542 54.9221Z" fill="white"/>
<path d="M10.5938 11.8241C10.4531 13.0272 10.0078 13.9569 9.25781 14.6132C8.51302 15.2642 7.52083 15.5897 6.28125 15.5897C4.9375 15.5897 3.85938 15.108 3.04688 14.1444C2.23958 13.1809 1.83594 11.8918 1.83594 10.2772V9.18347C1.83594 8.12618 2.02344 7.19649 2.39844 6.39441C2.77865 5.59233 3.3151 4.97774 4.00781 4.55066C4.70052 4.11837 5.5026 3.90222 6.41406 3.90222C7.6224 3.90222 8.59115 4.24076 9.32031 4.91785C10.0495 5.58972 10.474 6.52201 10.5938 7.71472H9.08594C8.95573 6.80847 8.67188 6.15222 8.23438 5.74597C7.80208 5.33972 7.19531 5.1366 6.41406 5.1366C5.45573 5.1366 4.70312 5.49076 4.15625 6.1991C3.61458 6.90743 3.34375 7.91524 3.34375 9.22253V10.3241C3.34375 11.5585 3.60156 12.5402 4.11719 13.2694C4.63281 13.9986 5.35417 14.3632 6.28125 14.3632C7.11458 14.3632 7.7526 14.1757 8.19531 13.8007C8.64323 13.4205 8.9401 12.7616 9.08594 11.8241H10.5938ZM13.8672 8.00378C14.5078 7.21733 15.3411 6.8241 16.3672 6.8241C18.1536 6.8241 19.0547 7.83191 19.0703 9.84753V15.4335H17.625V9.83972C17.6198 9.23035 17.4792 8.77983 17.2031 8.48816C16.9323 8.19649 16.5078 8.05066 15.9297 8.05066C15.4609 8.05066 15.0495 8.17566 14.6953 8.42566C14.3411 8.67566 14.0651 9.00378 13.8672 9.41003V15.4335H12.4219V3.43347H13.8672V8.00378ZM26.4531 15.4335C26.3698 15.2668 26.3021 14.9699 26.25 14.5428C25.5781 15.2408 24.776 15.5897 23.8438 15.5897C23.0104 15.5897 22.3255 15.3553 21.7891 14.8866C21.2578 14.4126 20.9922 13.8137 20.9922 13.0897C20.9922 12.2095 21.3255 11.5272 21.9922 11.0428C22.6641 10.5533 23.6068 10.3085 24.8203 10.3085H26.2266V9.64441C26.2266 9.1392 26.0755 8.73816 25.7734 8.44128C25.4714 8.1392 25.026 7.98816 24.4375 7.98816C23.9219 7.98816 23.4896 8.11837 23.1406 8.37878C22.7917 8.6392 22.6172 8.95431 22.6172 9.3241H21.1641C21.1641 8.90222 21.3125 8.49597 21.6094 8.10535C21.9115 7.70951 22.3177 7.39701 22.8281 7.16785C23.3438 6.93868 23.9089 6.8241 24.5234 6.8241C25.4974 6.8241 26.2604 7.06889 26.8125 7.55847C27.3646 8.04285 27.651 8.71212 27.6719 9.56628V13.4569C27.6719 14.233 27.7708 14.8501 27.9688 15.3085V15.4335H26.4531ZM24.0547 14.3319C24.5078 14.3319 24.9375 14.2147 25.3438 13.9803C25.75 13.746 26.0443 13.4413 26.2266 13.0663V11.3319H25.0938C23.3229 11.3319 22.4375 11.8501 22.4375 12.8866C22.4375 13.3397 22.5885 13.6939 22.8906 13.9491C23.1927 14.2043 23.5807 14.3319 24.0547 14.3319ZM27.0469 5.5741V5.65222H25.8516L24.6797 4.3241L23.5156 5.65222H22.3203V5.55847L24.2422 3.43347H25.1172L27.0469 5.5741ZM35.1562 14.5975C34.5938 15.259 33.7682 15.5897 32.6797 15.5897C31.7786 15.5897 31.0911 15.3293 30.6172 14.8085C30.1484 14.2824 29.9115 13.5064 29.9062 12.4803V6.98035H31.3516V12.4413C31.3516 13.7225 31.8724 14.3632 32.9141 14.3632C34.0182 14.3632 34.7526 13.9517 35.1172 13.1288V6.98035H36.5625V15.4335H35.1875L35.1562 14.5975ZM49.2422 12.4647H44.4766L43.4062 15.4335H41.8594L46.2031 4.05847H47.5156L51.8672 15.4335H50.3281L49.2422 12.4647ZM44.9297 11.2303H48.7969L46.8594 5.91003L44.9297 11.2303ZM49.2578 3.15222V3.23035H48.0625L46.8906 1.90222L45.7266 3.23035H44.5312V3.1366L46.4531 1.0116H47.3281L49.2578 3.15222ZM58.2969 14.5975C57.7344 15.259 56.9089 15.5897 55.8203 15.5897C54.9193 15.5897 54.2318 15.3293 53.7578 14.8085C53.2891 14.2824 53.0521 13.5064 53.0469 12.4803V6.98035H54.4922V12.4413C54.4922 13.7225 55.013 14.3632 56.0547 14.3632C57.1589 14.3632 57.8932 13.9517 58.2578 13.1288V6.98035H59.7031V15.4335H58.3281L58.2969 14.5975Z" fill="#77BEF6"/>
</svg>
