<svg width="123" height="253" viewBox="0 0 123 253" fill="none" xmlns="http://www.w3.org/2000/svg">
<line x1="60.4121" y1="94.6034" x2="60.4121" y2="252.223" stroke="#FE792C"/>
<path d="M47.4792 56.4716C54.4153 49.5355 65.6609 49.5355 72.597 56.4716C79.5331 63.4077 79.5331 74.6533 72.597 81.5894L60.0381 94.1483L47.4792 81.5894C40.5431 74.6533 40.5431 63.4077 47.4792 56.4716Z" stroke="#FE792C"/>
<path d="M48.8142 57.6801C55.0828 51.4114 65.2463 51.4114 71.5149 57.6801C77.7835 63.9487 77.7835 74.1122 71.5149 80.3808L60.1646 91.7311L48.8142 80.3808C42.5456 74.1122 42.5456 63.9487 48.8142 57.6801Z" fill="#FE792C"/>
<path d="M66.4618 74.7543H62.5382H59.2212H55.4914V69.7585V66.2711V64.1658H55.1108H52.1306H51.8169V78.4139H52.2529H55.4914H58.8476H62.9119H66.7986V74.7543H66.4618Z" fill="white"/>
<path d="M66.7571 72.9221C66.7571 70.4495 65.2139 68.335 63.0365 67.4786C63.567 66.5993 63.8738 65.5685 63.8738 64.4664C63.8738 61.5323 61.7032 59.1033 58.8729 58.6809C58.5869 58.6395 58.294 58.6166 57.9964 58.6166H51.8169V62.6022H52.4259H56.3218H58.8268C59.5995 63.0384 60.1231 63.8626 60.1231 64.8108C60.1231 65.6098 59.7518 66.3215 59.1705 66.7876H57.0461V67.2927V68.4888V70.2406V70.5367H60.2777H61.4841C62.5613 70.8053 63.3594 71.7719 63.3594 72.9267C63.3594 73.1104 63.3386 73.2918 63.2994 73.4639H66.7317C66.7479 73.2849 66.7571 73.1035 66.7571 72.9221Z" fill="white"/>
<path d="M25.1563 15.9241H23.6485V10.6663H17.9141V15.9241H16.4141V4.54907H17.9141V9.4397H23.6485V4.54907H25.1563V15.9241ZM27.211 11.6194C27.211 10.7913 27.3724 10.0465 27.6954 9.38501C28.0235 8.72355 28.4766 8.21313 29.0547 7.85376C29.6381 7.49438 30.3021 7.3147 31.0469 7.3147C32.198 7.3147 33.1277 7.71313 33.836 8.51001C34.5495 9.30688 34.9063 10.3668 34.9063 11.6897V11.7913C34.9063 12.6142 34.7474 13.3538 34.4297 14.01C34.1172 14.6611 33.6667 15.1689 33.0782 15.5334C32.4948 15.898 31.823 16.0803 31.0626 16.0803C29.9167 16.0803 28.987 15.6819 28.2735 14.885C27.5652 14.0881 27.211 13.0334 27.211 11.7209V11.6194ZM28.6641 11.7913C28.6641 12.7288 28.8803 13.4814 29.3126 14.0491C29.7501 14.6168 30.3334 14.9006 31.0626 14.9006C31.7969 14.9006 32.3803 14.6142 32.8126 14.0413C33.2448 13.4631 33.461 12.6558 33.461 11.6194C33.461 10.6923 33.2396 9.9423 32.7969 9.36938C32.3594 8.79126 31.7761 8.5022 31.0469 8.5022C30.3334 8.5022 29.7579 8.78605 29.3204 9.35376C28.8829 9.92147 28.6641 10.734 28.6641 11.7913ZM38.086 7.47095L38.1329 8.53345C38.7787 7.72095 39.6224 7.3147 40.6641 7.3147C42.4506 7.3147 43.3516 8.32251 43.3672 10.3381V15.9241H41.9219V10.3303C41.9167 9.72095 41.7761 9.27043 41.5001 8.97876C41.2292 8.68709 40.8047 8.54126 40.2266 8.54126C39.7579 8.54126 39.3464 8.66626 38.9922 8.91626C38.6381 9.16626 38.362 9.49438 38.1641 9.90063V15.9241H36.7188V7.47095H38.086ZM45.2032 11.6272C45.2032 10.3095 45.5079 9.26261 46.1172 8.48657C46.7266 7.70532 47.5339 7.3147 48.5391 7.3147C49.5704 7.3147 50.3751 7.67928 50.9532 8.40845L51.0235 7.47095H52.3438V15.7209C52.3438 16.8147 52.0183 17.6767 51.3672 18.3069C50.7214 18.9371 49.8516 19.2522 48.7579 19.2522C48.1485 19.2522 47.5521 19.122 46.9688 18.8616C46.3855 18.6012 45.9402 18.2444 45.6329 17.7913L46.3829 16.9241C47.0027 17.6897 47.7605 18.0725 48.6563 18.0725C49.3594 18.0725 49.9063 17.8746 50.2969 17.4788C50.6928 17.0829 50.8907 16.5256 50.8907 15.8069V15.0803C50.3126 15.747 49.5235 16.0803 48.5235 16.0803C47.5339 16.0803 46.7318 15.6819 46.1172 14.885C45.5079 14.0881 45.2032 13.0022 45.2032 11.6272ZM46.6563 11.7913C46.6563 12.7444 46.8516 13.4944 47.2422 14.0413C47.6329 14.5829 48.1797 14.8538 48.8829 14.8538C49.7943 14.8538 50.4636 14.4397 50.8907 13.6116V9.7522C50.448 8.94491 49.7839 8.54126 48.8985 8.54126C48.1954 8.54126 47.6459 8.8147 47.2501 9.36157C46.8542 9.90845 46.6563 10.7183 46.6563 11.7913ZM61.6172 10.635L60.2266 12.0803V15.9241H58.7266V4.54907H60.2266V10.1741L65.2813 4.54907H67.0938L62.6172 9.57251L67.4454 15.9241H65.6485L61.6172 10.635ZM67.9297 11.6194C67.9297 10.7913 68.0912 10.0465 68.4141 9.38501C68.7422 8.72355 69.1954 8.21313 69.7735 7.85376C70.3568 7.49438 71.0209 7.3147 71.7657 7.3147C72.9167 7.3147 73.8464 7.71313 74.5547 8.51001C75.2683 9.30688 75.6251 10.3668 75.6251 11.6897V11.7913C75.6251 12.6142 75.4662 13.3538 75.1485 14.01C74.836 14.6611 74.3855 15.1689 73.7969 15.5334C73.2136 15.898 72.5417 16.0803 71.7813 16.0803C70.6355 16.0803 69.7058 15.6819 68.9922 14.885C68.2839 14.0881 67.9297 13.0334 67.9297 11.7209V11.6194ZM69.3829 11.7913C69.3829 12.7288 69.599 13.4814 70.0313 14.0491C70.4688 14.6168 71.0521 14.9006 71.7813 14.9006C72.5157 14.9006 73.099 14.6142 73.5313 14.0413C73.9636 13.4631 74.1797 12.6558 74.1797 11.6194C74.1797 10.6923 73.9584 9.9423 73.5157 9.36938C73.0782 8.79126 72.4948 8.5022 71.7657 8.5022C71.0521 8.5022 70.4766 8.78605 70.0391 9.35376C69.6016 9.92147 69.3829 10.734 69.3829 11.7913ZM78.8047 7.47095L78.8516 8.53345C79.4974 7.72095 80.3412 7.3147 81.3829 7.3147C83.1693 7.3147 84.0704 8.32251 84.086 10.3381V15.9241H82.6407V10.3303C82.6355 9.72095 82.4948 9.27043 82.2188 8.97876C81.948 8.68709 81.5235 8.54126 80.9454 8.54126C80.4766 8.54126 80.0652 8.66626 79.711 8.91626C79.3568 9.16626 79.0808 9.49438 78.8829 9.90063V15.9241H77.4376V7.47095H78.8047ZM85.9219 11.6272C85.9219 10.3095 86.2266 9.26261 86.836 8.48657C87.4454 7.70532 88.2527 7.3147 89.2579 7.3147C90.2891 7.3147 91.0938 7.67928 91.6719 8.40845L91.7422 7.47095H93.0626V15.7209C93.0626 16.8147 92.737 17.6767 92.086 18.3069C91.4402 18.9371 90.5704 19.2522 89.4766 19.2522C88.8672 19.2522 88.2709 19.122 87.6876 18.8616C87.1042 18.6012 86.6589 18.2444 86.3516 17.7913L87.1016 16.9241C87.7214 17.6897 88.4792 18.0725 89.3751 18.0725C90.0782 18.0725 90.6251 17.8746 91.0157 17.4788C91.4115 17.0829 91.6094 16.5256 91.6094 15.8069V15.0803C91.0313 15.747 90.2422 16.0803 89.2422 16.0803C88.2527 16.0803 87.4506 15.6819 86.836 14.885C86.2266 14.0881 85.9219 13.0022 85.9219 11.6272ZM87.3751 11.7913C87.3751 12.7444 87.5704 13.4944 87.961 14.0413C88.3516 14.5829 88.8985 14.8538 89.6016 14.8538C90.5131 14.8538 91.1823 14.4397 91.6094 13.6116V9.7522C91.1667 8.94491 90.5027 8.54126 89.6172 8.54126C88.9141 8.54126 88.3646 8.8147 87.9688 9.36157C87.573 9.90845 87.3751 10.7183 87.3751 11.7913ZM98.9141 12.8694C98.9141 12.3225 99.0652 11.8199 99.3672 11.3616C99.6745 10.9032 100.258 10.3694 101.117 9.76001C100.612 9.14543 100.273 8.65063 100.102 8.27563C99.9297 7.90063 99.8438 7.52824 99.8438 7.15845C99.8438 6.29386 100.099 5.61678 100.609 5.1272C101.12 4.63761 101.813 4.39282 102.688 4.39282C103.469 4.39282 104.115 4.62199 104.625 5.08032C105.135 5.53345 105.391 6.10636 105.391 6.79907C105.391 7.25741 105.273 7.68188 105.039 8.07251C104.81 8.45793 104.406 8.86418 103.828 9.29126L102.992 9.90845L105.523 12.9319C105.878 12.2548 106.055 11.5022 106.055 10.6741H107.359C107.359 12.0022 107.039 13.1038 106.398 13.9788L108.023 15.9241H106.289L105.531 15.0256C105.146 15.3694 104.693 15.6324 104.172 15.8147C103.656 15.9918 103.13 16.0803 102.594 16.0803C101.484 16.0803 100.594 15.7861 99.9219 15.1975C99.2501 14.609 98.9141 13.8329 98.9141 12.8694ZM102.594 14.9006C103.359 14.9006 104.06 14.609 104.695 14.0256L101.922 10.7053L101.664 10.8928C100.794 11.5334 100.359 12.1923 100.359 12.8694C100.359 13.484 100.557 13.9762 100.953 14.3459C101.354 14.7157 101.901 14.9006 102.594 14.9006ZM101.289 7.11157C101.289 7.61157 101.596 8.23657 102.211 8.98657L103.133 8.33813C103.487 8.08813 103.729 7.85116 103.859 7.6272C103.99 7.39803 104.055 7.12199 104.055 6.79907C104.055 6.45011 103.925 6.16105 103.664 5.93188C103.404 5.69751 103.076 5.58032 102.68 5.58032C102.253 5.58032 101.914 5.72616 101.664 6.01782C101.414 6.30428 101.289 6.66886 101.289 7.11157ZM29.6094 24.7834H25.9532V34.9241H24.461V24.7834H20.8126V23.5491H29.6094V24.7834ZM34.5626 27.7678C34.3438 27.7314 34.1068 27.7131 33.8516 27.7131C32.9037 27.7131 32.2605 28.1168 31.9219 28.9241V34.9241H30.4766V26.4709H31.8829L31.9063 27.4475C32.3803 26.6923 33.0521 26.3147 33.9219 26.3147C34.2032 26.3147 34.4167 26.3512 34.5626 26.4241V27.7678ZM41.1172 34.0881C40.5547 34.7496 39.7292 35.0803 38.6407 35.0803C37.7396 35.0803 37.0521 34.8199 36.5782 34.2991C36.1094 33.773 35.8724 32.997 35.8672 31.9709V26.4709H37.3126V31.9319C37.3126 33.2131 37.8334 33.8538 38.8751 33.8538C39.9792 33.8538 40.7136 33.4423 41.0782 32.6194V26.4709H42.5235V34.9241H41.1485L41.1172 34.0881ZM46.0938 26.4709L46.1407 27.5334C46.7865 26.7209 47.6303 26.3147 48.6719 26.3147C50.4584 26.3147 51.3594 27.3225 51.3751 29.3381V34.9241H49.9297V29.3303C49.9245 28.7209 49.7839 28.2704 49.5079 27.9788C49.237 27.6871 48.8126 27.5413 48.2344 27.5413C47.7657 27.5413 47.3542 27.6663 47.0001 27.9163C46.6459 28.1663 46.3698 28.4944 46.1719 28.9006V34.9241H44.7266V26.4709H46.0938ZM53.211 30.6272C53.211 29.3095 53.5157 28.2626 54.1251 27.4866C54.7344 26.7053 55.5417 26.3147 56.5469 26.3147C57.5782 26.3147 58.3829 26.6793 58.961 27.4084L59.0313 26.4709H60.3516V34.7209C60.3516 35.8147 60.0261 36.6767 59.3751 37.3069C58.7292 37.9371 57.8594 38.2522 56.7657 38.2522C56.1563 38.2522 55.5599 38.122 54.9766 37.8616C54.3933 37.6012 53.948 37.2444 53.6407 36.7913L54.3907 35.9241C55.0105 36.6897 55.7683 37.0725 56.6641 37.0725C57.3672 37.0725 57.9141 36.8746 58.3047 36.4788C58.7006 36.0829 58.8985 35.5256 58.8985 34.8069V34.0803C58.3204 34.747 57.5313 35.0803 56.5313 35.0803C55.5417 35.0803 54.7396 34.6819 54.1251 33.885C53.5157 33.0881 53.211 32.0022 53.211 30.6272ZM54.6641 30.7913C54.6641 31.7444 54.8594 32.4944 55.2501 33.0413C55.6407 33.5829 56.1876 33.8538 56.8907 33.8538C57.8021 33.8538 58.4714 33.4397 58.8985 32.6116V28.7522C58.4558 27.9449 57.7917 27.5413 56.9063 27.5413C56.2032 27.5413 55.6537 27.8147 55.2579 28.3616C54.862 28.9084 54.6641 29.7183 54.6641 30.7913ZM75.4219 29.6038C75.4219 30.7027 75.2474 31.6506 74.8985 32.4475C74.5495 33.2392 74.0599 33.859 73.4297 34.3069L75.461 35.9006L74.4376 36.8459L72.0391 34.9397C71.6641 35.0334 71.2683 35.0803 70.8516 35.0803C69.9558 35.0803 69.1615 34.8616 68.4688 34.4241C67.7761 33.9814 67.237 33.3538 66.8516 32.5413C66.4714 31.7236 66.2761 30.7782 66.2657 29.7053V28.885C66.2657 27.7913 66.4558 26.8251 66.836 25.9866C67.2162 25.148 67.7527 24.5074 68.4454 24.0647C69.1433 23.6168 69.9402 23.3928 70.836 23.3928C71.7527 23.3928 72.5573 23.6142 73.2501 24.0569C73.948 24.4996 74.4844 25.1376 74.8594 25.9709C75.2344 26.7991 75.4219 27.7678 75.4219 28.8772V29.6038ZM73.9219 28.8694C73.9219 27.5308 73.6537 26.4996 73.1172 25.7756C72.586 25.0465 71.8256 24.6819 70.836 24.6819C69.8933 24.6819 69.1485 25.0439 68.6016 25.7678C68.0599 26.4866 67.7813 27.4866 67.7657 28.7678V29.6038C67.7657 30.9058 68.0365 31.9319 68.5782 32.6819C69.1251 33.4319 69.8829 33.8069 70.8516 33.8069C71.8204 33.8069 72.5704 33.4553 73.1016 32.7522C73.6329 32.0439 73.9063 31.0308 73.9219 29.7131V28.8694ZM82.7266 34.0881C82.1641 34.7496 81.3386 35.0803 80.2501 35.0803C79.349 35.0803 78.6615 34.8199 78.1876 34.2991C77.7188 33.773 77.4818 32.997 77.4766 31.9709V26.4709H78.9219V31.9319C78.9219 33.2131 79.4428 33.8538 80.4844 33.8538C81.5886 33.8538 82.323 33.4423 82.6876 32.6194V26.4709H84.1329V34.9241H82.7579L82.7266 34.0881ZM85.9532 30.6194C85.9532 29.7913 86.1146 29.0465 86.4376 28.385C86.7657 27.7236 87.2188 27.2131 87.7969 26.8538C88.3803 26.4944 89.0443 26.3147 89.7891 26.3147C90.9402 26.3147 91.8698 26.7131 92.5782 27.51C93.2917 28.3069 93.6485 29.3668 93.6485 30.6897V30.7913C93.6485 31.6142 93.4896 32.3538 93.1719 33.01C92.8594 33.6611 92.4089 34.1689 91.8204 34.5334C91.237 34.898 90.5652 35.0803 89.8047 35.0803C88.6589 35.0803 87.7292 34.6819 87.0157 33.885C86.3073 33.0881 85.9532 32.0334 85.9532 30.7209V30.6194ZM87.4063 30.7913C87.4063 31.7288 87.6224 32.4814 88.0547 33.0491C88.4922 33.6168 89.0756 33.9006 89.8047 33.9006C90.5391 33.9006 91.1224 33.6142 91.5547 33.0413C91.987 32.4631 92.2032 31.6558 92.2032 30.6194C92.2032 29.6923 91.9818 28.9423 91.5391 28.3694C91.1016 27.7913 90.5183 27.5022 89.7891 27.5022C89.0756 27.5022 88.5001 27.7861 88.0626 28.3538C87.6251 28.9215 87.4063 29.734 87.4063 30.7913ZM89.1485 23.1663H90.336L92.6016 25.2209H91.0626L89.7422 23.9788L88.4141 25.2209H86.8672L89.1485 23.1663ZM93.1329 21.8147H94.6954L93.1251 23.8381H92.0235L93.1329 21.8147ZM98.8516 33.9006C99.3672 33.9006 99.8178 33.7444 100.203 33.4319C100.589 33.1194 100.802 32.7288 100.844 32.26H102.211C102.185 32.7444 102.018 33.2053 101.711 33.6428C101.404 34.0803 100.992 34.4293 100.477 34.6897C99.9662 34.9501 99.4245 35.0803 98.8516 35.0803C97.7006 35.0803 96.7839 34.6975 96.1016 33.9319C95.4245 33.1611 95.086 32.109 95.086 30.7756V30.5334C95.086 29.7105 95.237 28.9788 95.5391 28.3381C95.8412 27.6975 96.2735 27.2001 96.836 26.8459C97.4037 26.4918 98.073 26.3147 98.8438 26.3147C99.7917 26.3147 100.578 26.5986 101.203 27.1663C101.833 27.734 102.169 28.4709 102.211 29.3772H100.844C100.802 28.8303 100.594 28.3824 100.219 28.0334C99.849 27.6793 99.3907 27.5022 98.8438 27.5022C98.1094 27.5022 97.5391 27.7678 97.1329 28.2991C96.7318 28.8251 96.5313 29.5881 96.5313 30.5881V30.8616C96.5313 31.8355 96.7318 32.5855 97.1329 33.1116C97.5339 33.6376 98.1068 33.9006 98.8516 33.9006Z" fill="#FE792C"/>
</svg>
