<svg width="124" height="313" viewBox="0 0 124 313" fill="none" xmlns="http://www.w3.org/2000/svg">
<line x1="26.5088" y1="51.7826" x2="26.5088" y2="312.198" stroke="#FF67CB"/>
<path d="M13.5759 13.6508C20.5119 6.71469 31.7576 6.71469 38.6937 13.6508C45.6298 20.5869 45.6298 31.8325 38.6937 38.7686L26.1348 51.3275L13.5759 38.7686C6.63976 31.8325 6.63976 20.5869 13.5759 13.6508Z" stroke="#FF67CB"/>
<path d="M14.9109 14.8593C21.1795 8.59064 31.343 8.59064 37.6116 14.8593C43.8802 21.1279 43.8802 31.2914 37.6116 37.56L26.2612 48.9103L14.9109 37.56C8.64225 31.2914 8.64224 21.1279 14.9109 14.8593Z" fill="#FF67CB"/>
<path d="M32.5585 31.9335H28.6349H25.3179H21.5881V26.9377V23.4503V21.345H21.2075H18.2273H17.9136V35.5931H18.3495H21.5881H24.9443H29.0086H32.8953V31.9335H32.5585Z" fill="white"/>
<path d="M32.8538 30.1013C32.8538 27.6287 31.3106 25.5142 29.1331 24.6578C29.6637 23.7785 29.9704 22.7477 29.9704 21.6456C29.9704 18.7115 27.7999 16.2825 24.9696 15.8601C24.6836 15.8187 24.3907 15.7958 24.0931 15.7958H17.9136V19.7814H18.5225H22.4185H24.9235C25.6962 20.2176 26.2198 21.0418 26.2198 21.99C26.2198 22.789 25.8485 23.5007 25.2672 23.9668H23.1428V24.4719V25.668V27.4198V27.7159H26.3744H27.5808C28.658 27.9845 29.4561 28.9511 29.4561 30.1059C29.4561 30.2896 29.4353 30.471 29.3961 30.6431H32.8284C32.8445 30.4641 32.8538 30.2827 32.8538 30.1013Z" fill="white"/>
<path d="M60.1157 33.3739V28.1708H58.6157V26.9911H60.1157V21.9989H63.3267C64.3162 21.9989 65.1912 22.2177 65.9517 22.6552C66.7121 23.0927 67.298 23.715 67.7095 24.5223C68.1261 25.3296 68.3371 26.2567 68.3423 27.3036V28.0302C68.3423 29.1031 68.134 30.0432 67.7173 30.8505C67.3058 31.6578 66.7147 32.2775 65.9438 32.7098C65.1782 33.1421 64.285 33.3635 63.2642 33.3739H60.1157ZM63.5845 28.1708H61.6157V32.1473H63.186C64.3423 32.1473 65.2407 31.7906 65.8813 31.077C66.5272 30.3635 66.8527 29.3583 66.8579 28.0614V27.3348C66.8579 26.0432 66.5532 25.0406 65.9438 24.327C65.3397 23.6083 64.4803 23.2437 63.3657 23.2333H61.6157V26.9911H63.5845V28.1708ZM75.6079 33.3739C75.5246 33.2072 75.4569 32.9104 75.4048 32.4833C74.7329 33.1812 73.9308 33.5302 72.9985 33.5302C72.1652 33.5302 71.4803 33.2958 70.9438 32.827C70.4126 32.3531 70.147 31.7541 70.147 31.0302C70.147 30.1499 70.4803 29.4677 71.147 28.9833C71.8188 28.4937 72.7616 28.2489 73.9751 28.2489H75.3813V27.5848C75.3813 27.0796 75.2303 26.6786 74.9282 26.3817C74.6261 26.0796 74.1808 25.9286 73.5923 25.9286C73.0767 25.9286 72.6444 26.0588 72.2954 26.3192C71.9465 26.5796 71.772 26.8947 71.772 27.2645H70.3188C70.3188 26.8427 70.4673 26.4364 70.7642 26.0458C71.0662 25.6499 71.4725 25.3374 71.9829 25.1083C72.4985 24.8791 73.0636 24.7645 73.6782 24.7645C74.6522 24.7645 75.4152 25.0093 75.9673 25.4989C76.5194 25.9833 76.8058 26.6525 76.8267 27.5067V31.3973C76.8267 32.1734 76.9256 32.7906 77.1235 33.2489V33.3739H75.6079ZM73.2095 32.2723C73.6626 32.2723 74.0923 32.1552 74.4985 31.9208C74.9048 31.6864 75.1991 31.3817 75.3813 31.0067V29.2723H74.2485C72.4777 29.2723 71.5923 29.7906 71.5923 30.827C71.5923 31.2802 71.7433 31.6343 72.0454 31.8895C72.3475 32.1447 72.7355 32.2723 73.2095 32.2723ZM74.6626 23.6708H73.4204L71.4048 21.3739H73.147L74.6626 23.6708ZM80.6626 33.3739H79.2173V24.9208H80.6626V33.3739ZM79.1001 22.6786C79.1001 22.4442 79.1704 22.2463 79.311 22.0848C79.4569 21.9234 79.6704 21.8427 79.9517 21.8427C80.2329 21.8427 80.4465 21.9234 80.5923 22.0848C80.7381 22.2463 80.811 22.4442 80.811 22.6786C80.811 22.913 80.7381 23.1083 80.5923 23.2645C80.4465 23.4208 80.2329 23.4989 79.9517 23.4989C79.6704 23.4989 79.4569 23.4208 79.311 23.2645C79.1704 23.1083 79.1001 22.913 79.1001 22.6786ZM88.686 32.1473H94.0767V33.3739H87.1782V21.9989H88.686V32.1473ZM95.1782 29.0692C95.1782 28.2411 95.3397 27.4963 95.6626 26.8348C95.9907 26.1734 96.4438 25.663 97.022 25.3036C97.6053 24.9442 98.2694 24.7645 99.0142 24.7645C100.165 24.7645 101.095 25.163 101.803 25.9598C102.517 26.7567 102.874 27.8166 102.874 29.1395V29.2411C102.874 30.064 102.715 30.8036 102.397 31.4598C102.084 32.1109 101.634 32.6187 101.045 32.9833C100.462 33.3479 99.7902 33.5302 99.0298 33.5302C97.884 33.5302 96.9543 33.1317 96.2407 32.3348C95.5324 31.538 95.1782 30.4833 95.1782 29.1708V29.0692ZM96.6313 29.2411C96.6313 30.1786 96.8475 30.9312 97.2798 31.4989C97.7173 32.0666 98.3006 32.3505 99.0298 32.3505C99.7642 32.3505 100.347 32.064 100.78 31.4911C101.212 30.913 101.428 30.1057 101.428 29.0692C101.428 28.1421 101.207 27.3921 100.764 26.8192C100.327 26.2411 99.7433 25.952 99.0142 25.952C98.3006 25.952 97.7251 26.2359 97.2876 26.8036C96.8501 27.3713 96.6313 28.1838 96.6313 29.2411ZM109.905 33.3739C109.821 33.2072 109.754 32.9104 109.702 32.4833C109.03 33.1812 108.228 33.5302 107.295 33.5302C106.462 33.5302 105.777 33.2958 105.241 32.827C104.709 32.3531 104.444 31.7541 104.444 31.0302C104.444 30.1499 104.777 29.4677 105.444 28.9833C106.116 28.4937 107.058 28.2489 108.272 28.2489H109.678V27.5848C109.678 27.0796 109.527 26.6786 109.225 26.3817C108.923 26.0796 108.478 25.9286 107.889 25.9286C107.374 25.9286 106.941 26.0588 106.592 26.3192C106.243 26.5796 106.069 26.8947 106.069 27.2645H104.616C104.616 26.8427 104.764 26.4364 105.061 26.0458C105.363 25.6499 105.769 25.3374 106.28 25.1083C106.795 24.8791 107.361 24.7645 107.975 24.7645C108.949 24.7645 109.712 25.0093 110.264 25.4989C110.816 25.9833 111.103 26.6525 111.124 27.5067V31.3973C111.124 32.1734 111.222 32.7906 111.42 33.2489V33.3739H109.905ZM107.506 32.2723C107.959 32.2723 108.389 32.1552 108.795 31.9208C109.202 31.6864 109.496 31.3817 109.678 31.0067V29.2723H108.545C106.775 29.2723 105.889 29.7906 105.889 30.827C105.889 31.2802 106.04 31.6343 106.342 31.8895C106.644 32.1447 107.032 32.2723 107.506 32.2723ZM114.756 24.9208L114.803 25.9833C115.449 25.1708 116.293 24.7645 117.334 24.7645C119.121 24.7645 120.022 25.7723 120.038 27.788V33.3739H118.592V27.7802C118.587 27.1708 118.446 26.7203 118.17 26.4286C117.9 26.1369 117.475 25.9911 116.897 25.9911C116.428 25.9911 116.017 26.1161 115.663 26.3661C115.308 26.6161 115.032 26.9442 114.834 27.3505V33.3739H113.389V24.9208H114.756Z" fill="#FF67CB"/>
</svg>
