<svg width="122" height="229" viewBox="0 0 122 229" fill="none" xmlns="http://www.w3.org/2000/svg">
<line x1="26.3442" y1="51.6034" x2="26.3442" y2="228.069" stroke="#76D009"/>
<path d="M13.4113 13.4716C20.3474 6.53549 31.593 6.53549 38.5291 13.4716C45.4652 20.4077 45.4652 31.6533 38.5291 38.5894L25.9702 51.1483L13.4113 38.5894C6.47521 31.6533 6.47521 20.4077 13.4113 13.4716Z" stroke="#76D009"/>
<path d="M14.7463 14.6801C21.0149 8.41144 31.1784 8.41144 37.447 14.6801C43.7157 20.9487 43.7157 31.1122 37.447 37.3808L26.0967 48.7311L14.7463 37.3808C8.4777 31.1122 8.47769 20.9487 14.7463 14.6801Z" fill="#76D009"/>
<path d="M32.394 31.7543H28.4703H25.1534H21.4235V26.7585V23.2711V21.1658H21.0429H18.0627H17.749V35.4139H18.185H21.4235H24.7797H28.844H32.7307V31.7543H32.394Z" fill="white"/>
<path d="M32.6892 29.9221C32.6892 27.4495 31.1461 25.335 28.9686 24.4786C29.4991 23.5993 29.8059 22.5685 29.8059 21.4664C29.8059 18.5323 27.6353 16.1033 24.8051 15.6809C24.519 15.6395 24.2261 15.6166 23.9285 15.6166H17.749V19.6022H18.358H22.2539H24.7589C25.5317 20.0384 26.0553 20.8626 26.0553 21.8108C26.0553 22.6098 25.6839 23.3215 25.1026 23.7876H22.9782V24.2927V25.4888V27.2406V27.5367H26.2098H27.4162C28.4934 27.8053 29.2915 28.7719 29.2915 29.9267C29.2915 30.1104 29.2708 30.2918 29.2315 30.4639H32.6638C32.68 30.2849 32.6892 30.1035 32.6892 29.9221Z" fill="white"/>
<path d="M63.2085 32.6619H61.7007L55.9741 23.8962V32.6619H54.4663V21.2869H55.9741L61.7163 30.0916V21.2869H63.2085V32.6619ZM67.0913 25.2322C67.7319 24.4457 68.5653 24.0525 69.5913 24.0525C71.3778 24.0525 72.2788 25.0603 72.2944 27.0759V32.6619H70.8491V27.0681C70.8439 26.4587 70.7033 26.0082 70.4272 25.7166C70.1564 25.4249 69.7319 25.2791 69.1538 25.2791C68.6851 25.2791 68.2736 25.4041 67.9194 25.6541C67.5653 25.9041 67.2892 26.2322 67.0913 26.6384V32.6619H65.646V20.6619H67.0913V25.2322ZM79.6772 32.6619C79.5939 32.4952 79.5262 32.1983 79.4741 31.7712C78.8022 32.4692 78.0002 32.8181 77.0679 32.8181C76.2345 32.8181 75.5496 32.5837 75.0132 32.115C74.4819 31.641 74.2163 31.0421 74.2163 30.3181C74.2163 29.4379 74.5496 28.7556 75.2163 28.2712C75.8882 27.7817 76.8309 27.5369 78.0444 27.5369H79.4507V26.8728C79.4507 26.3676 79.2996 25.9666 78.9976 25.6697C78.6955 25.3676 78.2502 25.2166 77.6616 25.2166C77.146 25.2166 76.7137 25.3468 76.3647 25.6072C76.0158 25.8676 75.8413 26.1827 75.8413 26.5525H74.3882C74.3882 26.1306 74.5366 25.7244 74.8335 25.3337C75.1356 24.9379 75.5418 24.6254 76.0522 24.3962C76.5679 24.1671 77.133 24.0525 77.7476 24.0525C78.7215 24.0525 79.4845 24.2973 80.0366 24.7869C80.5887 25.2712 80.8752 25.9405 80.896 26.7947V30.6853C80.896 31.4613 80.995 32.0785 81.1929 32.5369V32.6619H79.6772ZM77.2788 31.5603C77.7319 31.5603 78.1616 31.4431 78.5679 31.2087C78.9741 30.9744 79.2684 30.6697 79.4507 30.2947V28.5603H78.3179C76.547 28.5603 75.6616 29.0785 75.6616 30.115C75.6616 30.5681 75.8127 30.9223 76.1147 31.1775C76.4168 31.4327 76.8049 31.5603 77.2788 31.5603ZM80.271 22.8025V22.8806H79.0757L77.9038 21.5525L76.7397 22.8806H75.5444V22.7869L77.4663 20.6619H78.3413L80.271 22.8025ZM76.3804 34.5759C76.3804 34.3416 76.4507 34.1436 76.5913 33.9822C76.7371 33.8207 76.9507 33.74 77.2319 33.74C77.5132 33.74 77.7267 33.8207 77.8726 33.9822C78.0184 34.1436 78.0913 34.3416 78.0913 34.5759C78.0913 34.8103 78.0184 35.0056 77.8726 35.1619C77.7267 35.3181 77.5132 35.3962 77.2319 35.3962C76.9507 35.3962 76.7371 35.3181 76.5913 35.1619C76.4507 35.0056 76.3804 34.8103 76.3804 34.5759ZM85.1226 22.1619V24.2087H86.7007V25.3259H85.1226V30.5681C85.1226 30.9067 85.1929 31.1619 85.3335 31.3337C85.4741 31.5004 85.7137 31.5837 86.0522 31.5837C86.2189 31.5837 86.4481 31.5525 86.7397 31.49V32.6619C86.3595 32.766 85.9897 32.8181 85.6304 32.8181C84.9845 32.8181 84.4976 32.6228 84.1694 32.2322C83.8413 31.8416 83.6772 31.2869 83.6772 30.5681V25.3259H82.1382V24.2087H83.6772V22.1619H85.1226ZM92.5913 32.6619V21.2869H96.3101C97.5444 21.2869 98.4715 21.5421 99.0913 22.0525C99.7163 22.5629 100.029 23.3181 100.029 24.3181C100.029 24.8494 99.8778 25.3207 99.5757 25.7322C99.2736 26.1384 98.8621 26.4535 98.3413 26.6775C98.9559 26.8494 99.4403 27.1775 99.7944 27.6619C100.154 28.141 100.333 28.7139 100.333 29.3806C100.333 30.4014 100.003 31.2035 99.3413 31.7869C98.6799 32.3702 97.745 32.6619 96.5366 32.6619H92.5913ZM94.0913 27.3416V31.4353H96.5679C97.2658 31.4353 97.8153 31.2556 98.2163 30.8962C98.6226 30.5317 98.8257 30.0317 98.8257 29.3962C98.8257 28.0264 98.0809 27.3416 96.5913 27.3416H94.0913ZM94.0913 26.1384H96.3569C97.0132 26.1384 97.5366 25.9744 97.9272 25.6462C98.3231 25.3181 98.521 24.8728 98.521 24.3103C98.521 23.6853 98.3387 23.2322 97.9741 22.9509C97.6095 22.6645 97.0549 22.5212 96.3101 22.5212H94.0913V26.1384ZM107.552 32.6619C107.469 32.4952 107.401 32.1983 107.349 31.7712C106.677 32.4692 105.875 32.8181 104.943 32.8181C104.11 32.8181 103.425 32.5837 102.888 32.115C102.357 31.641 102.091 31.0421 102.091 30.3181C102.091 29.4379 102.425 28.7556 103.091 28.2712C103.763 27.7817 104.706 27.5369 105.919 27.5369H107.326V26.8728C107.326 26.3676 107.175 25.9666 106.873 25.6697C106.57 25.3676 106.125 25.2166 105.537 25.2166C105.021 25.2166 104.589 25.3468 104.24 25.6072C103.891 25.8676 103.716 26.1827 103.716 26.5525H102.263C102.263 26.1306 102.412 25.7244 102.708 25.3337C103.011 24.9379 103.417 24.6254 103.927 24.3962C104.443 24.1671 105.008 24.0525 105.623 24.0525C106.597 24.0525 107.36 24.2973 107.912 24.7869C108.464 25.2712 108.75 25.9405 108.771 26.7947V30.6853C108.771 31.4613 108.87 32.0785 109.068 32.5369V32.6619H107.552ZM105.154 31.5603C105.607 31.5603 106.037 31.4431 106.443 31.2087C106.849 30.9744 107.143 30.6697 107.326 30.2947V28.5603H106.193C104.422 28.5603 103.537 29.0785 103.537 30.115C103.537 30.5681 103.688 30.9223 103.99 31.1775C104.292 31.4327 104.68 31.5603 105.154 31.5603ZM105.294 22.8416L105.287 21.6462C105.677 21.6202 105.964 21.5681 106.146 21.49C106.328 21.4119 106.419 21.2712 106.419 21.0681C106.419 20.865 106.3 20.7139 106.06 20.615C105.826 20.5108 105.513 20.4587 105.123 20.4587L105.177 19.6306C105.953 19.6306 106.542 19.766 106.943 20.0369C107.344 20.3025 107.544 20.6567 107.544 21.0994C107.544 21.4171 107.443 21.6801 107.24 21.8884C107.037 22.0968 106.735 22.2296 106.333 22.2869L106.326 22.8416H105.294ZM112.404 24.2087L112.451 25.2712C113.097 24.4587 113.94 24.0525 114.982 24.0525C116.768 24.0525 117.669 25.0603 117.685 27.0759V32.6619H116.24V27.0681C116.235 26.4587 116.094 26.0082 115.818 25.7166C115.547 25.4249 115.123 25.2791 114.544 25.2791C114.076 25.2791 113.664 25.4041 113.31 25.6541C112.956 25.9041 112.68 26.2322 112.482 26.6384V32.6619H111.037V24.2087H112.404Z" fill="#76D009"/>
</svg>
